<svg width="64" height="64" viewBox="0 0 64 64" fill="none" xmlns="http://www.w3.org/2000/svg">
<path d="M55.846 49.998L55.852 49.992L43.621 37.761C45.752 34.528 47 30.662 47 26.5C47 15.178 37.822 6 26.5 6C15.178 6 6 15.178 6 26.5C6 37.822 15.178 47 26.5 47C30.663 47 34.531 45.751 37.765 43.619L49.997 55.848C51.539 57.39 54.037 57.39 55.578 55.848L55.846 55.58C57.385 54.038 57.385 51.54 55.846 49.998Z" fill="url(#paint0_linear)"/>
<path d="M26.5 12C22.6544 12 18.9662 13.5277 16.247 16.247C13.5277 18.9662 12 22.6544 12 26.5C12 30.3456 13.5277 34.0338 16.247 36.753C18.9662 39.4723 22.6544 41 26.5 41C30.3456 41 34.0338 39.4723 36.753 36.753C39.4723 34.0338 41 30.3456 41 26.5C41 22.6544 39.4723 18.9662 36.753 16.247C34.0338 13.5277 30.3456 12 26.5 12V12Z" fill="url(#paint1_linear)"/>
<defs>
<linearGradient id="paint0_linear" x1="31.5" y1="6" x2="31.5" y2="57.004" gradientUnits="userSpaceOnUse">
<stop stop-color="#A4A4A4"/>
<stop offset="0.63" stop-color="#7F7F7F"/>
<stop offset="1" stop-color="#6F6F6F"/>
</linearGradient>
<linearGradient id="paint1_linear" x1="26.5" y1="12" x2="26.5" y2="41" gradientUnits="userSpaceOnUse">
<stop stop-color="#DEF9FF"/>
<stop offset="0.282" stop-color="#CFF6FF"/>
<stop offset="0.823" stop-color="#A7EFFF"/>
<stop offset="1" stop-color="#99ECFF"/>
</linearGradient>
</defs>
</svg>
